<?xml version="1.0" encoding="UTF-8" standalone="no"?>
<!DOCTYPE svg PUBLIC "-//W3C//DTD SVG 1.1//EN" "http://www.w3.org/Graphics/SVG/1.1/DTD/svg11.dtd">
<svg width="100%" height="100%" viewBox="0 0 3600 3600" version="1.1" xmlns="http://www.w3.org/2000/svg" xmlns:xlink="http://www.w3.org/1999/xlink" xml:space="preserve" xmlns:serif="http://www.serif.com/" style="fill-rule:evenodd;clip-rule:evenodd;stroke-linejoin:round;stroke-miterlimit:2;">
    <g>
        <path d="M1800,819.641C2341.08,819.641 2780.36,1258.92 2780.36,1800C2780.36,2341.08 2341.08,2780.36 1800,2780.36C1258.92,2780.36 819.641,2341.08 819.641,1800C819.641,1258.92 1258.92,819.641 1800,819.641ZM1800,1384.75C2029.18,1384.75 2215.25,1570.82 2215.25,1800C2215.25,2029.18 2029.18,2215.25 1800,2215.25C1570.82,2215.25 1384.75,2029.18 1384.75,1800C1384.75,1570.82 1570.82,1384.75 1800,1384.75Z" style="fill:white;"/>
        <g>
            <g transform="matrix(1.35172,0,0,1,-443.867,0)">
                <rect x="662.086" y="1601.74" width="599.914" height="401.29" style="fill:none;"/>
                <clipPath id="_clip1">
                    <rect x="662.086" y="1601.74" width="599.914" height="401.29"/>
                </clipPath>
                <g clip-path="url(#_clip1)">
                    <g transform="matrix(2.00965,0,0,2.71648,-1957.38,-3089.67)">
                        <circle cx="1800.01" cy="1800" r="424.477" style="fill:white;"/>
                    </g>
                </g>
            </g>
            <g transform="matrix(1.03548,-0.868867,0.642788,0.766044,-1077.45,1864.01)">
                <rect x="662.086" y="1601.74" width="599.914" height="401.29" style="fill:none;"/>
                <clipPath id="_clip2">
                    <rect x="662.086" y="1601.74" width="599.914" height="401.29"/>
                </clipPath>
                <g clip-path="url(#_clip2)">
                    <g transform="matrix(2.00965,0,0,2.71648,-1957.38,-3089.67)">
                        <circle cx="1800.01" cy="1800" r="424.477" style="fill:white;"/>
                    </g>
                </g>
            </g>
            <g transform="matrix(0.234723,-1.33118,0.984808,0.173648,-364.646,3699.18)">
                <rect x="662.086" y="1601.74" width="599.914" height="401.29" style="fill:none;"/>
                <clipPath id="_clip3">
                    <rect x="662.086" y="1601.74" width="599.914" height="401.29"/>
                </clipPath>
                <g clip-path="url(#_clip3)">
                    <g transform="matrix(2.00965,0,0,2.71648,-1957.38,-3089.67)">
                        <circle cx="1800.01" cy="1800" r="424.477" style="fill:white;"/>
                    </g>
                </g>
            </g>
            <g transform="matrix(-0.675858,-1.17062,0.866025,-0.5,1361.02,4646.82)">
                <rect x="662.086" y="1601.74" width="599.914" height="401.29" style="fill:none;"/>
                <clipPath id="_clip4">
                    <rect x="662.086" y="1601.74" width="599.914" height="401.29"/>
                </clipPath>
                <g clip-path="url(#_clip4)">
                    <g transform="matrix(2.00965,0,0,2.71648,-1957.38,-3089.67)">
                        <circle cx="1800.01" cy="1800" r="424.477" style="fill:white;"/>
                    </g>
                </g>
            </g>
            <g transform="matrix(-1.2702,-0.462314,0.34202,-0.939693,3292.09,4263.52)">
                <rect x="662.086" y="1601.74" width="599.914" height="401.29" style="fill:none;"/>
                <clipPath id="_clip5">
                    <rect x="662.086" y="1601.74" width="599.914" height="401.29"/>
                </clipPath>
                <g clip-path="url(#_clip5)">
                    <g transform="matrix(2.00965,0,0,2.71648,-1957.38,-3089.67)">
                        <circle cx="1800.01" cy="1800" r="424.477" style="fill:white;"/>
                    </g>
                </g>
            </g>
            <g transform="matrix(-1.2702,0.462314,-0.34202,-0.939693,4525,2728.62)">
                <rect x="662.086" y="1601.74" width="599.914" height="401.29" style="fill:none;"/>
                <clipPath id="_clip6">
                    <rect x="662.086" y="1601.74" width="599.914" height="401.29"/>
                </clipPath>
                <g clip-path="url(#_clip6)">
                    <g transform="matrix(2.00965,0,0,2.71648,-1957.38,-3089.67)">
                        <circle cx="1800.01" cy="1800" r="424.477" style="fill:white;"/>
                    </g>
                </g>
            </g>
            <g transform="matrix(-0.675858,1.17062,-0.866025,-0.5,4482.84,760.331)">
                <rect x="662.086" y="1601.74" width="599.914" height="401.29" style="fill:none;"/>
                <clipPath id="_clip7">
                    <rect x="662.086" y="1601.74" width="599.914" height="401.29"/>
                </clipPath>
                <g clip-path="url(#_clip7)">
                    <g transform="matrix(2.00965,0,0,2.71648,-1957.38,-3089.67)">
                        <circle cx="1800.01" cy="1800" r="424.477" style="fill:white;"/>
                    </g>
                </g>
            </g>
            <g transform="matrix(0.234723,1.33118,-0.984808,0.173648,3185.36,-720.373)">
                <rect x="662.086" y="1601.74" width="599.914" height="401.29" style="fill:none;"/>
                <clipPath id="_clip8">
                    <rect x="662.086" y="1601.74" width="599.914" height="401.29"/>
                </clipPath>
                <g clip-path="url(#_clip8)">
                    <g transform="matrix(2.00965,0,0,2.71648,-1957.38,-3089.67)">
                        <circle cx="1800.01" cy="1800" r="424.477" style="fill:white;"/>
                    </g>
                </g>
            </g>
            <g transform="matrix(1.03548,0.868867,-0.642788,0.766044,1239.65,-1020.65)">
                <rect x="662.086" y="1601.74" width="599.914" height="401.29" style="fill:none;"/>
                <clipPath id="_clip9">
                    <rect x="662.086" y="1601.74" width="599.914" height="401.29"/>
                </clipPath>
                <g clip-path="url(#_clip9)">
                    <g transform="matrix(2.00965,0,0,2.71648,-1957.38,-3089.67)">
                        <circle cx="1800.01" cy="1800" r="424.477" style="fill:white;"/>
                    </g>
                </g>
            </g>
        </g>
    </g>
</svg>
