<?xml version="1.0" encoding="UTF-8" standalone="no"?>
<!DOCTYPE svg PUBLIC "-//W3C//DTD SVG 1.1//EN" "http://www.w3.org/Graphics/SVG/1.1/DTD/svg11.dtd">
<svg width="100%" height="100%" viewBox="0 0 3600 3600" version="1.1" xmlns="http://www.w3.org/2000/svg" xmlns:xlink="http://www.w3.org/1999/xlink" xml:space="preserve" xmlns:serif="http://www.serif.com/" style="fill-rule:evenodd;clip-rule:evenodd;stroke-linejoin:round;stroke-miterlimit:2;">
    <g transform="matrix(13.3392,0,0,13.3392,1800,2644.36)">
        <g id="Layer-1" serif:id="Layer 1">
            <path d="M0,-150.113L15.396,-148.966C15.396,-148.966 14.409,-159.863 17.937,-163.88C21.466,-167.893 27.212,-171.192 35.625,-169.184C44.038,-167.177 56.548,-153.196 61.703,-150.328C66.859,-147.461 78.162,-146.766 82.067,-148.643C86.319,-150.686 90.757,-155.544 87.5,-167.302C84.245,-179.061 69.593,-182.107 67.965,-184.688C66.337,-187.27 67.424,-188.421 68.781,-188.134C70.139,-187.847 95.104,-184.239 101.345,-168.752C107.586,-153.265 99.719,-138.069 92.12,-134.052C85.456,-130.53 75.023,-130.323 68.782,-130.898C62.542,-131.471 51.822,-135.199 47.888,-134.627C45.948,-134.344 41.103,-131.185 41.103,-128.317C41.103,-125.449 46.723,-125.132 53.551,-123.169C60.38,-121.206 76.002,-125.675 81.951,-127.088C87.902,-128.502 102.081,-133.817 105.552,-131.293C109.021,-128.769 103.883,-116.09 100.034,-112.363C96.186,-108.638 80.73,-99.539 71.731,-100.188C62.731,-100.837 59.772,-103.169 56.249,-102.973C52.726,-102.777 51.002,-102.569 48.12,-100.001C45.238,-97.434 47.616,-90.175 45.174,-85.011C42.73,-79.849 41.918,-80.136 40.832,-76.981C39.747,-73.826 43.274,-46.582 41.375,-39.125C39.475,-31.668 37.848,-26.507 37.033,-18.764C36.219,-11.02 36.219,-2.416 37.576,4.754C38.932,11.924 40.29,23.395 38.39,27.123C36.49,30.851 31.677,35.439 25.165,36.874C18.652,38.308 0,38.308 0,38.308L0,-150.113Z" style="fill-rule:nonzero;"/>
        </g>
    </g>
</svg>
